<?xml version="1.0" standalone="no"?><svg xmlns="http://www.w3.org/2000/svg" viewBox="0 0 1440 320"><path fill="#059669" fill-opacity="0.15" d="M0,224L7.7,224C15.5,224,31,224,46,208C61.9,192,77,160,93,154.7C108.4,149,124,171,139,170.7C154.8,171,170,149,186,128C201.3,107,217,85,232,80C247.7,75,263,85,279,112C294.2,139,310,181,325,197.3C340.6,213,356,203,372,208C387.1,213,403,235,418,234.7C433.5,235,449,213,465,218.7C480,224,495,256,511,240C526.5,224,542,160,557,149.3C572.9,139,588,181,604,213.3C619.4,245,635,267,650,245.3C665.8,224,681,160,697,144C712.3,128,728,160,743,165.3C758.7,171,774,149,790,160C805.2,171,821,213,836,224C851.6,235,867,213,883,170.7C898.1,128,914,64,929,64C944.5,64,960,128,975,154.7C991,181,1006,171,1022,192C1037.4,213,1053,267,1068,250.7C1083.9,235,1099,149,1115,144C1130.3,139,1146,213,1161,224C1176.8,235,1192,181,1208,165.3C1223.2,149,1239,171,1254,181.3C1269.7,192,1285,192,1301,170.7C1316.1,149,1332,107,1347,117.3C1362.6,128,1378,192,1394,192C1409,192,1425,128,1432,96L1440,64L1440,320L1432.3,320C1424.5,320,1409,320,1394,320C1378.1,320,1363,320,1347,320C1331.6,320,1316,320,1301,320C1285.2,320,1270,320,1254,320C1238.7,320,1223,320,1208,320C1192.3,320,1177,320,1161,320C1145.8,320,1130,320,1115,320C1099.4,320,1084,320,1068,320C1052.9,320,1037,320,1022,320C1006.5,320,991,320,975,320C960,320,945,320,929,320C913.5,320,898,320,883,320C867.1,320,852,320,836,320C820.6,320,805,320,790,320C774.2,320,759,320,743,320C727.7,320,712,320,697,320C681.3,320,666,320,650,320C634.8,320,619,320,604,320C588.4,320,573,320,557,320C541.9,320,526,320,511,320C495.5,320,480,320,465,320C449,320,434,320,418,320C402.6,320,387,320,372,320C356.1,320,341,320,325,320C309.7,320,294,320,279,320C263.2,320,248,320,232,320C216.8,320,201,320,186,320C170.3,320,155,320,139,320C123.9,320,108,320,93,320C77.4,320,62,320,46,320C31,320,15,320,8,320L0,320Z"></path></svg>